<?xml version="1.0" encoding="UTF-8"?>
<!DOCTYPE svg PUBLIC "-//W3C//DTD SVG 1.1//EN" "http://www.w3.org/Graphics/SVG/1.1/DTD/svg11.dtd">
<!-- Creator: CorelDRAW 2017 -->
<svg xmlns="http://www.w3.org/2000/svg" xml:space="preserve" width="900px" height="150px" version="1.1" style="shape-rendering:geometricPrecision; text-rendering:geometricPrecision; image-rendering:optimizeQuality; fill-rule:evenodd; clip-rule:evenodd"
viewBox="0 0 900 149.96"
 xmlns:xlink="http://www.w3.org/1999/xlink">
 <defs>
  <style type="text/css">
   <![CDATA[
    .fil0 {fill:none}
    .fil1 {fill:#2E2B2B}
    .fil3 {fill:#8C7345}
    .fil2 {fill:#FFBE07}
   ]]>
  </style>
 </defs>
 <g id="Layer_x0020_1">
  <metadata id="CorelCorpID_0Corel-Layer"/>
  <rect class="fil0" width="900" height="149.96"/>
  <g id="_1431503461744">
   <g>
    <path class="fil1" d="M5.23 116.71l36.85 -109.34 41.46 0 36.37 109.34 -38.31 0 -4.85 -16.97 -29.09 0 -5.09 16.97c0,0 -37.34,0 -37.34,0zm48.49 -45.34l16.49 0 -7.76 -32.24 -8.73 32.24zm70.31 44.37l0 -31.03c1.46,0.24 3.64,0.48 6.31,0.97 7.51,1.69 15.03,2.66 22.79,3.15 2.66,0.24 5.57,-0.49 8,-1.94 1.94,-0.97 2.91,-2.91 3.15,-4.85 0,-2.18 -2.67,-4.12 -7.76,-6.06 -2.42,-0.97 -4.36,-1.7 -5.58,-2.42 -10.42,-4.61 -17.69,-9.46 -21.82,-14.55 -4.12,-5.09 -6.3,-11.64 -6.06,-18.18 -0.24,-9.95 4.37,-19.16 12.12,-25.22 8.01,-6.55 18.67,-9.7 31.76,-9.7 4.85,0 9.7,0.25 14.55,0.73 4.37,0.48 8.49,1.21 12.85,2.42l0 30.55c-4.36,-1.21 -8.73,-2.42 -13.33,-3.15 -3.64,-0.73 -7.03,-0.97 -10.67,-0.97 -2.91,-0.24 -5.82,0.24 -8.24,1.46 -1.7,0.72 -2.91,2.18 -2.91,4.12 0,2.42 2.91,4.6 8.48,6.79 3.64,1.45 6.31,2.66 8.49,3.63 9.45,4.85 15.76,9.46 19.15,14.06 3.64,5.1 5.34,11.16 5.09,17.46 0,11.64 -4.12,20.37 -12.12,26.67 -8,6.06 -19.64,9.21 -34.91,9.21 -5.58,0 -11.4,-0.24 -16.97,-0.72 -4.12,-0.49 -8.25,-1.22 -12.12,-2.19l-0.25 -0.24zm81.22 0l0 -31.03c1.46,0.24 3.64,0.48 6.3,0.97 7.52,1.69 15.04,2.66 22.79,3.15 2.67,0.24 5.58,-0.49 8.01,-1.94 1.94,-0.97 2.9,-2.91 3.15,-4.85 0,-2.18 -2.67,-4.12 -7.76,-6.06 -2.43,-0.97 -4.36,-1.7 -5.58,-2.42 -10.42,-4.61 -17.7,-9.46 -21.82,-14.55 -4.12,-5.09 -6.06,-11.64 -5.82,-18.18 -0.24,-9.95 4.37,-19.16 12.13,-25.22 8,-6.55 18.66,-9.7 31.51,-9.7 4.85,0 9.7,0.25 14.55,0.73 4.37,0.48 8.49,1.21 12.85,2.42l0 30.55c-4.36,-1.45 -8.73,-2.42 -13.33,-3.15 -3.64,-0.73 -7.03,-0.97 -10.67,-0.97 -2.91,-0.24 -5.82,0.24 -8.24,1.46 -1.7,0.72 -2.91,2.18 -2.91,4.12 0,2.42 2.9,4.6 8.72,6.79 3.4,1.45 6.31,2.66 8.49,3.63 9.45,4.85 15.76,9.46 19.15,14.06 3.64,5.1 5.34,11.16 5.09,17.46 0,11.64 -4.12,20.37 -12.12,26.67 -8,6.06 -19.64,9.21 -34.67,9.21 -5.57,0 -11.15,-0.24 -16.73,-0.72 -5.09,-0.73 -9.21,-1.46 -13.09,-2.43l0 0zm82.19 0.97l0 -109.34 61.34 0 8.73 29.09 -35.64 0 0 11.4 23.03 0 0 27.15 -23.03 0 0 12.12 35.64 0 -11.64 29.58 -58.43 0zm96.74 0l0 -77.58 -19.88 0 0 -31.76 74.43 0 0 31.76 -19.88 0 0 77.58 -34.67 0z"/>
   </g>
   <path class="fil2" d="M478.97 116.71l0 -77.58 -30.3 0 14.06 -31.52 70.79 0 0 31.52 -19.88 0 0 77.58 -34.67 0zm63.52 -109.34l34.67 0 0 109.34 -34.67 0 0 -109.34zm140.14 102.55c-6.31,2.91 -12.85,5.34 -19.64,7.03 -6.06,1.46 -12.37,2.43 -18.67,2.43 -7.52,0 -15.03,-1.21 -22.06,-4.12 -6.79,-2.67 -13.09,-6.55 -18.43,-11.64 -5.57,-5.09 -9.7,-11.4 -12.61,-18.43 -2.9,-7.51 -4.36,-15.27 -4.12,-23.27 0,-8 1.22,-15.76 4.12,-23.28 2.91,-7.03 7.04,-13.33 12.61,-18.42 5.34,-5.1 11.64,-8.97 18.43,-11.64 13.58,-5.09 28.36,-5.33 42.18,-0.73 6.31,2.18 12.13,5.58 17.22,9.7l-17.94 26.67c-2.67,-2.43 -5.82,-4.37 -9.22,-5.58 -3.39,-1.21 -6.78,-1.94 -10.18,-1.94 -6.3,-0.24 -12.36,2.18 -16.49,6.79 -4.36,5.09 -6.54,11.64 -6.3,18.18 -0.24,6.55 1.94,13.1 6.3,17.95 3.88,4.6 9.46,7.27 15.52,7.27 0.97,0 1.94,0 2.91,-0.24 0.97,-0.25 1.94,-0.49 3.15,-0.73l0 -9.94 -16 0 6.06 -24.49 43.4 0 -0.24 58.43zm10.91 6.79l0 -109.34 61.58 0 8.73 29.09 -35.64 0 0 11.4 23.03 0 0 27.15 -23.03 0 0 12.12 35.64 0 -11.64 29.58 -58.67 0zm110.07 -79.52l0 26.18 0.48 0c3.88,0.24 8,-0.97 10.91,-3.39 2.67,-2.43 4.12,-6.06 3.88,-9.7 0.24,-3.64 -1.21,-7.27 -3.88,-9.7 -3.15,-2.42 -7.03,-3.63 -10.91,-3.39l-0.48 0zm-32.49 79.52l0 -109.34 41.22 0c13.33,0 23.51,2.66 30.54,8.24 7.03,5.58 10.67,13.58 10.67,24.24 0.24,6.07 -1.45,11.88 -4.36,16.98 -2.91,4.84 -7.28,8.97 -12.37,11.39l21.1 48.49c5.09,9.46 20.85,8.97 13.57,0.49 -1.45,-1.7 -0.48,-7.52 2.67,-9.46 2.18,-1.45 4.61,-1.94 7.27,-1.7 7.52,0 13.34,5.58 13.34,15.52 -0.25,9.45 -6.06,17.94 -14.79,21.58 -8.73,4.12 -25.46,2.42 -35.4,-3.64 -8.97,-5.33 -15.76,-13.33 -19.64,-22.79l-21.09 -44.85 0 44.85c0,0 -32.73,0 -32.73,0z"/>
   <path class="fil0" d="M559.46 7.37l-16.97 0 0 36.36 0.49 -0.72c6.54,-11.64 12.12,-23.52 16.48,-35.64"/>
   <path class="fil1" d="M835.24 132.23c14.41,4.78 29.43,9.31 39.2,12.6 -9.12,1.66 -21.75,-0.38 -29.86,-5.33 -3.45,-2.05 -6.57,-4.5 -9.34,-7.27zm5.7 -118.03c0.68,0.45 1.32,0.92 1.94,1.41 7.03,5.58 10.67,13.58 10.67,24.24 0.17,4.31 -0.63,8.5 -2.16,12.38l-0.02 -0.01c-6.79,-10.67 -10.43,-23.03 -10.43,-35.64l0 -2.38zm-32.72 -6.83l4.12 0c3.47,0 9.66,0.6 12.71,0.97 -1.21,21.53 -0.24,34.27 15.07,58.01 -0.47,0.26 -2.82,1.64 -3.3,1.87l8.59 19.74c-13.16,-7.94 -23.25,-18.29 -28.71,-29.92 1.57,-2.23 2.37,-4.99 2.18,-7.76 0.24,-3.64 -1.21,-7.27 -3.88,-9.7 -1.34,-1.03 -2.81,-1.84 -4.36,-2.42l0 0c-1.63,-7.6 -2.36,-20.44 -2.42,-30.79zm-4.61 53.09l0 2.91 0.49 0c0.24,0.02 0.49,0.03 0.73,0.03 1.69,3.63 3.39,7.01 5.08,10.16 10.72,19.69 22.83,28.88 43.96,33.85l4.05 9.3c5.09,9.46 20.85,8.97 13.57,0.49 -0.86,-1.01 -0.87,-3.46 -0.08,-5.69 9.84,4.93 18.84,8.91 23.35,9.61 0.09,5.07 -1.9,10.46 -4.96,14.45 -22.01,-5.68 -47.54,-14.18 -67,-23.41l-3.26 -6.94 15.12 4.17c-2.01,-2.62 -14.86,-7.89 -18.2,-10.71l-12.61 -26.82 0 14.14c-30.96,-28.81 -29.66,-37.87 -26.72,-78.63l17.05 0c-0.43,17.65 2.88,36.71 9.43,53.09zm-32.49 24.25l0 -24c0.24,0.48 0.48,0.97 0.73,1.45 5.57,12.61 15.76,24.24 32,34.43l0 7.51c-11.4,-5.33 -22.55,-11.88 -32.73,-19.39zm0 32l23.76 0c-8.49,-5.09 -16.49,-10.91 -23.76,-17.46l0 17.46zm-38.55 0l-18.67 0c7.28,-8.49 12.61,-18.67 15.28,-29.58l24.11 0c0.57,2.75 5.02,9.17 6.47,10.38l-7.55 19.2 -4.85 0c0.97,-8.97 -1.97,-18.32 -3.91,-27.29 -4.85,9.7 -7,18.8 -10.88,27.29zm12.85 -41.7l-12.85 0c3.43,-11.79 8.52,-9.25 12.85,0zm-0.73 -27.15c0.73,6.78 2.91,13.33 6.55,19.15l0 -19.15 -6.55 0zm1.7 -40.49c-1.45,9.7 -2.42,19.39 -2.42,29.09l19.88 0 -8.73 -29.09c0,0 -8.73,0 -8.73,0zm-27.15 0c-0.25,1.94 -0.25,3.63 -0.49,5.57 -3.39,33.7 -16,61.58 -25.21,89.47l0 14.3 3.15 0c5.82,-6.55 10.18,-14.06 13.09,-22.3 3.15,-9.46 5.33,-18.19 11.15,-24.73 4.61,-4.85 10.91,-8.01 11.64,-13.34 0.24,-2.67 0.73,-5.57 0.97,-8.48l-5.33 0 0 -11.4 6.54 0c0.73,-9.7 1.46,-19.39 1.94,-29.09l-17.45 0zm-25.7 68.37l0 -68.37 14.79 0c-0.49,3.63 -0.73,7.27 -1.22,11.15 -2.91,19.4 -7.51,38.55 -13.57,57.22zm-23.3 39.11c-3.86,1.46 -3.22,1.1 -7.25,2.1 -5.25,1.26 -10.68,2.16 -16.14,2.38 10.47,-23.48 19.81,-41.8 25.82,-67.84l10.2 0 -0.16 37.65c-1.99,4.34 -10.35,21.93 -12.47,25.71zm-20.83 -33.9l0 -4.97 -11.91 0c2.1,-5.16 9.16,-24.36 9.21,-24.49l13.56 0 -0.92 3.88c-2.14,8.1 -5.45,18.64 -9.94,25.58zm3.02 -75.86c4.05,0.53 8.07,1.45 12.01,2.76 0.95,0.33 1.89,0.69 2.82,1.07 -1.39,10.37 -3.54,23.37 -5.47,33.69 -2.22,-1.68 -4.68,-3.04 -7.29,-3.97 -2.72,-0.97 -5.44,-1.63 -8.16,-1.85 2.14,-9.68 4.49,-21.99 6.09,-31.7zm-25.47 111.84c-1.59,-0.48 -3.16,-1.03 -4.7,-1.67 -5.62,-2.21 -10.91,-5.25 -15.59,-9.12 8.12,-22.95 9.27,-64.2 11.67,-95.86 1.29,-0.61 2.59,-1.18 3.92,-1.7 4.95,-1.86 10.07,-3.07 15.25,-3.64l-0.46 4.37c-1.34,9.58 -2.74,20.96 -5.03,30.64 -1.54,0.98 -2.95,2.16 -4.19,3.54 -4.36,5.09 -6.54,11.64 -6.3,18.18 -0.24,6.55 1.94,13.1 6.3,17.95 3.88,4.6 9.46,7.27 15.52,7.27l0.41 0c-3.52,5.6 -7.61,11.94 -10.83,17.7 -2.05,3.63 -4.3,8.37 -5.97,12.34zm-30.19 -21.44c-2.2,-3.19 -4.04,-6.65 -5.55,-10.3 -2.9,-7.51 -4.36,-15.27 -4.12,-23.27 0,-8 1.22,-15.76 4.12,-23.28 2.91,-7.03 7.04,-13.33 12.61,-18.42 -0.26,24.88 -5.69,68.92 -7.06,75.27zm-19.61 -11.51c-4.08,10.98 -8.65,21.58 -12.36,32.73l12.36 0 0 -32.73zm-34.67 -16.78c6.19,-17.33 16.77,-41.74 24.01,-59.83l10.66 0 0 43.15c-16.6,25.93 -23.37,46.48 -29.94,66.19l-4.73 0 0 -49.51zm-28.85 20.36c-2.67,6.55 -9.42,22.36 -11.36,29.15l-23.31 0c12.67,-36.75 20.73,-71.1 29.28,-109.1l18.19 0c-1.83,8.83 -4.71,22.56 -4.07,31.52l-8.73 0 0 48.43zm-44.12 -79.95c-2.32,10.82 -4.95,20.91 -8.25,31.52l17.7 0 0 19.88c5.49,-17.38 11.03,-33.58 15.22,-51.4l-24.67 0z"/>
   <path class="fil3" d="M803.61 37.19l0 26.18 0.48 0c3.88,0.24 8,-0.97 10.91,-3.39 2.67,-2.43 4.12,-6.06 3.88,-9.7 0.24,-3.64 -1.21,-7.27 -3.88,-9.7 -3.15,-2.42 -7.03,-3.63 -10.91,-3.39l-0.48 0zm-32.49 79.52l0 -109.34 41.22 0c13.33,0 23.51,2.66 30.54,8.24 7.03,5.58 10.67,13.58 10.67,24.24 0.24,6.07 -1.45,11.88 -4.36,16.98 -2.91,4.84 -7.28,8.97 -12.37,11.39l21.1 48.49c5.09,9.46 20.85,8.97 13.57,0.49 -1.45,-1.7 -0.48,-7.52 2.67,-9.46 2.18,-1.45 4.61,-1.94 7.27,-1.7 7.52,0 13.34,5.58 13.34,15.52 -0.25,9.45 -6.06,17.94 -14.79,21.58 -8.73,4.12 -25.46,2.42 -35.4,-3.64 -8.97,-5.33 -15.76,-13.33 -19.64,-22.79l-21.09 -44.85 0 44.85 -32.73 0zm-77.58 0l0 -109.34 61.58 0 8.73 29.09 -35.64 0 0 11.4 23.03 0 0 27.15 -23.03 0 0 12.12 35.64 0 -11.64 29.58 -58.67 0zm-10.91 -6.79c-6.31,2.91 -12.85,5.34 -19.64,7.03 -6.06,1.46 -12.37,2.43 -18.67,2.43 -7.52,0 -15.03,-1.21 -22.06,-4.12 -6.79,-2.67 -13.09,-6.55 -18.43,-11.64 -5.57,-5.09 -9.7,-11.4 -12.61,-18.43 -2.9,-7.51 -4.36,-15.27 -4.12,-23.27 0,-8 1.22,-15.76 4.12,-23.28 2.91,-7.03 7.04,-13.33 12.61,-18.42 5.34,-5.1 11.64,-8.97 18.43,-11.64 13.58,-5.09 28.36,-5.33 42.18,-0.73 6.31,2.18 12.13,5.58 17.22,9.7l-17.94 26.67c-2.67,-2.43 -5.82,-4.37 -9.22,-5.58 -3.39,-1.21 -6.78,-1.94 -10.18,-1.94 -6.3,-0.24 -12.36,2.18 -16.49,6.79 -4.36,5.09 -6.54,11.64 -6.3,18.18 -0.24,6.55 1.94,13.1 6.3,17.95 3.88,4.6 9.46,7.27 15.52,7.27 0.97,0 1.94,0 2.91,-0.24 0.97,-0.25 1.94,-0.49 3.15,-0.73l0 -9.94 -16 0 6.06 -24.49 43.4 0 -0.24 58.43zm-140.14 -102.55l34.67 0 0 109.34 -34.67 0 0 -109.34zm-63.52 109.34l0 -77.58 -30.3 0 14.06 -31.52 70.79 0 0 31.52 -19.88 0 0 77.58 -34.67 0zm321.73 -53.34l0 -26.18c0,-1.61 1.3,-2.91 2.91,-2.91l0.48 0c2.23,-0.12 4.46,0.17 6.59,0.83 2.11,0.66 4.14,1.7 5.96,3.08 0.11,0.07 0.22,0.15 0.32,0.25 1.65,1.5 2.94,3.39 3.76,5.46 0.81,2.01 1.19,4.19 1.07,6.38 0.12,2.19 -0.26,4.37 -1.07,6.38 -0.82,2.07 -2.11,3.96 -3.76,5.46l-0.01 0 -0.1 0.08c-1.74,1.46 -3.81,2.54 -6.01,3.23 -2.17,0.67 -4.47,0.96 -6.72,0.85l-0.51 0c-1.61,0 -2.91,-1.3 -2.91,-2.91zm-26.67 -53.1l0 103.54 26.91 0 0 -41.95 0.01 0c0,-1.09 0.62,-2.13 1.67,-2.63 1.45,-0.67 3.18,-0.05 3.85,1.4l21.15 44.98c1.84,4.47 4.36,8.59 7.48,12.21 3.09,3.59 6.77,6.69 10.96,9.18l0.03 0.02c4.59,2.8 10.81,4.6 16.92,5.23 6,0.62 11.78,0.1 15.67,-1.71l0.19 -0.08c3.83,-1.6 7.03,-4.26 9.29,-7.57 2.23,-3.25 3.56,-7.11 3.7,-11.17l0 -0.16c0,-4.08 -1.1,-7.23 -2.92,-9.35 -1.83,-2.13 -4.48,-3.26 -7.51,-3.26l0 -0.01 -0.26 -0.01c-1.03,-0.1 -2.01,-0.05 -2.92,0.15 -0.86,0.2 -1.69,0.55 -2.49,1.08l0 -0.01 -0.08 0.05c-0.08,0.05 -0.17,0.12 -0.26,0.2 -0.76,0.65 -1.27,1.79 -1.53,2.94 -0.22,0.97 -0.26,1.77 -0.11,2.07 2.29,2.71 2.86,5.13 2.29,7.09 -0.49,1.66 -1.68,2.83 -3.35,3.49 -1.25,0.49 -2.77,0.68 -4.39,0.55 -4.38,-0.35 -10.08,-3.09 -12.97,-8.46l-0.1 -0.21 -21.02 -48.31 -0.04 -0.09c-0.69,-1.45 -0.08,-3.18 1.37,-3.87 2.26,-1.08 4.36,-2.52 6.22,-4.24 1.88,-1.73 3.51,-3.72 4.82,-5.87l0.06 -0.11c1.38,-2.42 2.46,-4.99 3.14,-7.64 0.63,-2.44 0.93,-4.97 0.85,-7.55 -0.01,-0.11 -0.02,-0.22 -0.02,-0.34 0,-4.92 -0.82,-9.2 -2.44,-12.86 -1.6,-3.59 -3.98,-6.61 -7.12,-9.11 -3.2,-2.53 -7.15,-4.42 -11.86,-5.68 -4.83,-1.29 -10.46,-1.93 -16.88,-1.93l-38.31 0zm-77.59 0l0 103.53 53.79 0 9.35 -23.76 -31.37 0c-1.61,0 -2.91,-1.3 -2.91,-2.91l0 -12.12c0,-1.61 1.3,-2.91 2.91,-2.91l20.12 0 0 -21.34 -20.12 0c-1.61,0 -2.91,-1.3 -2.91,-2.9l0 -11.4c0,-1.6 1.3,-2.91 2.91,-2.91l31.73 0 -6.98 -23.28 -56.52 0zm-24.43 100.9c2.58,-0.93 5.16,-1.98 7.73,-3.12l0.22 -53.65 -38.22 0 -4.62 18.68 12.03 0 0.26 -0.01c1.61,0 2.91,1.3 2.91,2.91l0 9.94c0,1.36 -0.96,2.57 -2.34,2.85 -1.15,0.23 -2.02,0.44 -2.88,0.66 -0.03,0.01 -0.1,0.03 -0.14,0.03 -1.33,0.34 -2.47,0.34 -3.61,0.34 -3.43,0 -6.74,-0.76 -9.76,-2.18 -2.96,-1.38 -5.61,-3.4 -7.81,-5.95l-0.1 -0.11c-2.42,-2.68 -4.24,-5.83 -5.43,-9.22 -1.19,-3.4 -1.74,-7.03 -1.62,-10.67 -0.12,-3.61 0.43,-7.23 1.62,-10.65 1.18,-3.41 2.98,-6.62 5.38,-9.41l0 0 0.05 -0.05c2.34,-2.62 5.23,-4.63 8.42,-5.94 3.14,-1.29 6.58,-1.92 10.08,-1.82l0.14 0c1.88,0 3.76,0.2 5.65,0.57 1.85,0.36 3.69,0.89 5.51,1.54 1.86,0.66 3.66,1.52 5.36,2.55l-0.01 0.01 0.01 0c0.77,0.47 1.52,0.97 2.24,1.5l14.66 -21.79c-1.86,-1.37 -3.81,-2.63 -5.85,-3.78 -2.7,-1.53 -5.51,-2.81 -8.39,-3.81 -6.59,-2.19 -13.41,-3.23 -20.21,-3.12 -6.72,0.12 -13.43,1.37 -19.85,3.76l-0.13 0.05c-3.28,1.29 -6.44,2.88 -9.41,4.75 -2.84,1.8 -5.52,3.87 -7.99,6.21l-0.12 0.12c-2.56,2.33 -4.78,4.94 -6.71,7.76 -2.05,2.98 -3.76,6.2 -5.16,9.6 -1.37,3.54 -2.35,7.17 -2.99,10.87 -0.63,3.69 -0.92,7.47 -0.92,11.33l-0.01 0 0 0.08c-0.12,3.8 0.17,7.55 0.83,11.23 0.66,3.67 1.7,7.3 3.08,10.88 1.41,3.4 3.12,6.62 5.17,9.61 1.93,2.82 4.15,5.42 6.71,7.75l0.04 0.05c2.49,2.37 5.2,4.47 8.07,6.28 2.97,1.88 6.13,3.46 9.41,4.75l0 0.01 0.05 0.02c3.21,1.32 6.54,2.28 9.93,2.91 3.6,0.67 7.3,0.98 11.03,0.98 3.06,0 6.08,-0.23 9.04,-0.63 2.97,-0.4 5.89,-0.97 8.74,-1.65l0.18 -0.05c3.35,-0.84 6.59,-1.84 9.73,-2.97zm-97.75 -100.9l-28.86 0 0 103.53 28.86 0 0 -103.53zm-92.38 28.86l0 74.67 28.85 0 0 -74.67 0.02 0c0,-1.6 1.29,-2.9 2.89,-2.9l16.98 0 0 -25.72 -66.01 0 -11.47 25.71 25.83 0c1.61,0 2.91,1.3 2.91,2.91z"/>
  </g>
 </g>
</svg>
